<svg xmlns="http://www.w3.org/2000/svg" viewBox="0 0 32 32">
  <defs>
    <linearGradient id="g" x1="0" y1="0" x2="1" y2="1">
      <stop offset="0%" stop-color="#f97316"/>
      <stop offset="100%" stop-color="#f59e0b"/>
    </linearGradient>
  </defs>
  <rect width="32" height="32" rx="8" fill="url(#g)"/>
  <!-- UtensilsCrossed icon (Lucide) scaled to fit -->
  <g transform="translate(7,7) scale(0.75)" fill="none" stroke="white" stroke-width="2" stroke-linecap="round" stroke-linejoin="round">
    <path d="m16 2-2.6 2.6a7.07 7.07 0 0 0 0 10l.4.4 2.6-2.6a7.07 7.07 0 0 0 0-10z"/>
    <path d="m8 22 5-5"/>
    <path d="M2 16l2.6-2.6a7.07 7.07 0 0 1 10 0l.4.4-2.6 2.6a7.07 7.07 0 0 1-10 0z"/>
    <path d="m22 8-5 5"/>
    <path d="m2 2 20 20"/>
  </g>
</svg>
